<svg aria-hidden="true" style="position: absolute; width: 0; height: 0; overflow: hidden;" version="1.1" xmlns="http://www.w3.org/2000/svg" xmlns:xlink="http://www.w3.org/1999/xlink">
<defs>
<symbol id="google-logo" viewBox="0 0 32 32">
<path fill="#2196f3" style="fill: var(--color1, #2196f3)" d="M31.394 13.038c0.139 0 0.251 0.115 0.251 0.258v2.704c0 1.012-0.092 2.002-0.268 2.962-1.362 7.457-7.777 13.092-15.466 13.038-8.628-0.061-15.532-7.2-15.513-16.036 0.019-8.82 7.007-15.964 15.623-15.964 4.221 0 8.052 1.715 10.864 4.501 0.102 0.101 0.104 0.266 0.004 0.369l-3.736 3.826c-0.096 0.098-0.252 0.101-0.35 0.005-1.765-1.721-4.153-2.777-6.783-2.777-5.43 0-9.802 4.446-9.839 10.007-0.037 5.597 4.382 10.146 9.839 10.146 4.427 0 8.172-2.995 9.407-7.115h-9.155c-0.139 0-0.252-0.115-0.252-0.258v-5.408c0-0.142 0.113-0.258 0.252-0.258l15.121 0z"></path>
<path fill="#1e88e5" style="fill: var(--color2, #1e88e5)" d="M31.393 13.038h-1.886c0.139 0 0.251 0.115 0.251 0.258v2.704c0 1.012-0.092 2.002-0.268 2.962-1.299 7.114-7.198 12.57-14.414 13.009 0.276 0.017 0.554 0.026 0.834 0.028 7.689 0.054 14.104-5.581 15.466-13.038 0.176-0.96 0.268-1.95 0.268-2.962v-2.704c0-0.142-0.113-0.258-0.252-0.258z"></path>
<path fill="#f44336" style="fill: var(--color3, #f44336)" d="M7.084 11.78l-4.745-3.511c2.662-4.931 7.792-8.269 13.682-8.269 4.222 0 8.052 1.715 10.864 4.501 0.102 0.101 0.104 0.266 0.004 0.369l-3.736 3.826c-0.096 0.098-0.251 0.101-0.35 0.005-1.765-1.721-4.153-2.777-6.783-2.777-3.963 0-7.379 2.399-8.937 5.857z"></path>
<path fill="#e53935" style="fill: var(--color4, #e53935)" d="M5.714 10.767l1.37 1.014c1.423-3.156 4.393-5.429 7.914-5.802 0.027-0.003 0.052-0.006 0.079-0.009-0.31-0.030-0.624-0.046-0.941-0.046-3.58 0-6.7 1.933-8.421 4.843z"></path>
<path fill="#e53935" style="fill: var(--color4, #e53935)" d="M24.999 4.501c0.102 0.101 0.104 0.266 0.004 0.369l-3.032 3.105c0.291 0.226 0.569 0.468 0.832 0.726 0.099 0.096 0.254 0.094 0.35-0.005l3.736-3.826c0.1-0.102 0.097-0.268-0.004-0.369-2.812-2.786-6.642-4.501-10.864-4.501-0.317 0-0.631 0.011-0.943 0.030 3.847 0.235 7.32 1.894 9.921 4.471z"></path>
<path fill="#4caf50" style="fill: var(--color5, #4caf50)" d="M27.482 26.874c-2.853 3.153-6.932 5.126-11.461 5.126-6.117 0-11.412-3.6-13.977-8.844l4.844-3.4c1.454 3.704 4.995 6.32 9.133 6.32 2.597 0 4.958-1.030 6.716-2.713l4.745 3.51z"></path>
<path fill="#43a047" style="fill: var(--color6, #43a047)" d="M6.888 19.756l-1.428 1.003c1.659 3.165 4.922 5.318 8.675 5.318 0.317 0 0.631-0.016 0.941-0.046-3.726-0.364-6.846-2.855-8.187-6.274z"></path>
<path fill="#43a047" style="fill: var(--color6, #43a047)" d="M16.021 32c4.529 0 8.608-1.974 11.461-5.126l-1.162-0.86c-2.679 3.414-6.698 5.679-11.239 5.957 0.311 0.019 0.625 0.029 0.941 0.029z"></path>
<path fill="#ffc107" style="fill: var(--color7, #ffc107)" d="M6.182 16c0 1.328 0.251 2.595 0.707 3.756l-4.844 3.4c-1.054-2.153-1.647-4.584-1.647-7.156 0-2.804 0.704-5.439 1.941-7.731l4.745 3.511c-0.579 1.283-0.902 2.713-0.902 4.22z"></path>
<path fill="#ffb300" style="fill: var(--color8, #ffb300)" d="M5.46 20.759l1.428-1.003c-0.456-1.161-0.707-2.429-0.707-3.756 0-1.507 0.323-2.937 0.902-4.22l-1.37-1.014c-0.889 1.504-1.406 3.269-1.418 5.164-0.012 1.747 0.411 3.392 1.164 4.829z"></path>
</symbol>

<symbol id="logo" viewBox="0 0 90 31" xmlns="http://www.w3.org/2000/svg">
  <rect x="6" y="5" width="33" height="26" rx="8" fill="#FB7C2F"/>
  <rect width="33" height="26" rx="8" fill="#FB7C2F" fill-opacity=".2"/>
  <path fill-rule="evenodd" clip-rule="evenodd" d="m23.134 20.57 1.285-1.41 2.767 4.838H30.9l-4.392-7.249L30.9 11h-3.874l-2.803 4.08-1.09 1.651V11H20v12.998h3.134V20.57Zm14.578 2.562c.083.381.179.67.286.866h3.008v-.152c-.262-.47-.398-1.148-.41-2.035v-4.276c-.018-1.048-.384-1.872-1.098-2.473-.715-.601-1.688-.902-2.92-.902s-2.247.292-3.044.875c-.791.583-1.187 1.342-1.187 2.277h3.008c0-.703.357-1.054 1.072-1.054.767 0 1.151.444 1.151 1.33v.51h-.928c-1.476 0-2.601.267-3.375.803-.774.535-1.16 1.327-1.16 2.374 0 .834.318 1.527.955 2.08.637.548 1.41.822 2.32.822.995 0 1.768-.348 2.322-1.045Zm-.67-1.339c-.244.16-.553.241-.928.241-.286 0-.52-.083-.705-.25a.875.875 0 0 1-.277-.67c0-.94.524-1.41 1.571-1.41h.875v1.545c-.107.202-.286.384-.536.544Zm14.195-2.553c0 1.5-.34 2.699-1.018 3.598-.672.892-1.583 1.339-2.732 1.339-.886 0-1.615-.325-2.187-.973v4.508h-3.008V14.339h2.812l.09.893c.576-.715 1.335-1.072 2.276-1.072 1.19 0 2.115.44 2.776 1.322.66.874.991 2.08.991 3.615v.143Zm-3.009-.188c0-1.714-.5-2.57-1.5-2.57-.714 0-1.19.255-1.428.767v3.803c.262.536.744.804 1.447.804.958 0 1.452-.828 1.481-2.482v-.322Zm8.517 5.125c1.084 0 1.944-.408 2.58-1.223l.09 1.044h2.82v-9.66H59.21v6.777c-.291.494-.782.74-1.473.74-.803 0-1.205-.413-1.205-1.24v-6.276h-3.008v6.258c0 1.154.27 2.041.812 2.66.547.613 1.35.92 2.41.92Zm12.204-2.893c0-.256-.134-.46-.402-.616-.268-.154-.776-.315-1.526-.482-.75-.166-1.37-.384-1.857-.651-.488-.274-.86-.605-1.116-.991a2.356 2.356 0 0 1-.384-1.33c0-.887.366-1.616 1.098-2.188.615-.485 1.389-.766 2.323-.844V11.99h1.434v2.222c.873.106 1.602.378 2.189.815.773.578 1.16 1.336 1.16 2.277h-3.017c0-.774-.408-1.16-1.223-1.16a1.2 1.2 0 0 0-.795.267.803.803 0 0 0-.321.652c0 .267.13.485.393.651.261.167.678.304 1.25.411a10.81 10.81 0 0 1 1.517.384c1.452.5 2.178 1.396 2.178 2.687 0 .88-.392 1.598-1.178 2.151-.587.417-1.304.677-2.153.78v2.202h-1.434v-2.174a4.983 4.983 0 0 1-1.662-.424c-.649-.297-1.155-.702-1.518-1.214-.363-.511-.544-1.05-.544-1.616h2.812c.011.447.16.774.446.983.286.202.652.303 1.098.303.41 0 .717-.083.92-.25a.795.795 0 0 0 .312-.652Zm8.82-6.945v-2.402h-3.008v2.402h-1.232v2.089h1.232v4.794c0 .994.247 1.735.74 2.223.495.488 1.26.732 2.295.732.59 0 1.155-.087 1.696-.26v-2.15a4.415 4.415 0 0 1-.75.053c-.386 0-.645-.072-.776-.214-.131-.143-.197-.396-.197-.76v-4.418h1.59v-2.09h-1.59Zm9.222 9.66c-.107-.197-.202-.486-.285-.867-.554.697-1.327 1.045-2.321 1.045-.91 0-1.685-.274-2.321-.822-.637-.553-.956-1.246-.956-2.08 0-1.047.387-1.839 1.16-2.374.775-.536 1.9-.804 3.375-.804h.929v-.509c0-.886-.384-1.33-1.152-1.33-.714 0-1.071.351-1.071 1.054h-3.008c0-.935.395-1.694 1.187-2.277.797-.583 1.812-.875 3.044-.875s2.205.3 2.92.902c.713.601 1.08 1.425 1.097 2.473v4.276c.012.887.15 1.565.411 2.035v.152h-3.008Zm-1.883-1.965c.375 0 .684-.08.928-.24.25-.162.429-.343.536-.545v-1.545h-.875c-1.047 0-1.571.47-1.571 1.41 0 .274.092.498.276.67.185.167.42.25.706.25Z" />
</symbol>
<symbol id="logout" width="16" height="16" fill="none" xmlns="http://www.w3.org/2000/svg"><g clip-path="url(#a)" fill="#CBCCD0"><path d="M10 14H2V2h8v1h2V0H0v16h12v-3h-2v1Z"/><path d="m12.293 4.293-1.414 1.414L12.172 7H7v2h5.172l-1.293 1.293 1.414 1.414L16 8l-3.707-3.707Z"/></g><defs><clipPath id="a"><path fill="#fff" d="M0 0h16v16H0z"/></clipPath></defs>
</symbol>
<symbol id="logout" width="16" height="16" viewBox="0 0 16 16" fill="none" xmlns="http://www.w3.org/2000/svg">
<g clip-path="url(#clip0_14_1485)">
<path d="M9.99998 14H1.99998V1.99998H9.99998V2.99998H12V0H0V16H12V13H10V14H9.99998Z" fill="#CBCCD0"/>
<path d="M12.293 4.29297L10.8789 5.70702L12.1719 6.99998H7V8.99999H12.1719L10.8789 10.293L12.293 11.707L16 7.99997L12.293 4.29297Z" fill="#CBCCD0"/>
</g>
<defs>
<clipPath id="clip0_14_1485">
<rect width="16" height="16" fill="white"/>
</clipPath>
</defs>
</symbol>
</defs>
</svg>
